<svg width="51" height="50" viewBox="0 0 51 50" fill="none" xmlns="http://www.w3.org/2000/svg">
<g clip-path="url(#clip0_565_29)">
<path d="M35.6206 32.455C33.1969 33.2512 26.1853 33.6565 25.8967 30.1823C26.0699 27.924 27.9021 26.2882 29.4458 24.8406C30.5856 23.8852 31.8407 22.9443 33.3844 22.785C39.213 22.2494 41.1318 30.3849 35.6206 32.4695V32.455ZM35.2167 31.4706C37.5394 30.4428 38.1887 27.2871 36.6305 25.3618C34.8993 23.1469 31.9273 23.7549 29.9219 25.4486C28.3349 26.6212 24.5694 29.9506 27.2817 31.6733C29.6622 32.7879 32.8362 32.3247 35.2167 31.4706Z" fill="#222222"/>
<path d="M27.4116 40.5183C25.9545 38.4192 23.5019 31.8182 26.748 30.5154C28.9409 30.0232 31.0473 31.3115 32.8795 32.3538C34.1203 33.1645 35.3899 34.0909 35.9958 35.5385C38.2176 40.967 31.0184 45.194 27.4261 40.5183H27.4116ZM28.234 39.8524C29.8931 41.7777 33.0815 41.4882 34.4665 39.4181C36.0679 37.1019 34.6252 34.4384 32.4179 33.0052C30.8309 31.8182 26.5604 29.1836 25.7092 32.2959C25.3486 34.9161 26.7047 37.8257 28.2196 39.8524H28.234Z" fill="#222222"/>
<path d="M17.3269 35.0171C18.8994 33.0049 24.4827 28.7201 26.6612 31.456C27.7721 33.4247 27.1662 35.8133 26.7045 37.8689C26.2861 39.302 25.7812 40.7785 24.5837 41.7919C20.0536 45.5122 13.9221 39.8376 17.3269 35.0171ZM18.1925 35.6106C16.8363 37.7675 18.0482 40.7496 20.4287 41.4734C23.0977 42.3275 25.2185 40.1705 25.9399 37.6373C26.6035 35.7699 27.8731 30.9059 24.6559 30.9928C22.059 31.4126 19.6785 33.5695 18.1925 35.6106Z" fill="#222222"/>
<path d="M19.6208 23.7258C22.0013 24.6378 27.7144 28.749 25.7523 31.6442C24.2086 33.2944 21.756 33.3958 19.6497 33.555C18.1637 33.5695 16.6055 33.5116 15.2927 32.672C10.4307 29.4149 14.0375 21.8729 19.6208 23.7403V23.7258ZM19.3178 24.7391C16.8652 24.0733 14.3837 26.1144 14.3837 28.5898C14.3405 31.4126 17.0239 32.8023 19.6641 32.7588C21.6406 32.8457 26.6468 32.643 25.6225 29.5886C24.4683 27.2145 21.7127 25.5643 19.3323 24.7391H19.3178Z" fill="#222222"/>
<path d="M31.0617 22.6255C30.8886 25.1733 28.6379 31.8612 25.3197 30.8189C23.2999 29.8201 22.4775 27.4894 21.7129 25.5207C21.2656 24.1021 20.8617 22.5821 21.2801 21.0766C22.968 15.4599 31.206 16.7193 31.0617 22.6255ZM30.0085 22.6255C29.9364 20.0778 27.2673 18.2972 24.8869 19.021C22.189 19.8027 21.6408 22.7992 22.4487 25.3036C22.9392 27.2289 24.6127 31.977 27.2096 30.0806C29.1284 28.2711 29.8931 25.1588 29.9941 22.6255H30.0085Z" fill="#222222"/>
<path d="M26.0698 18.2541C27.4084 18.2541 28.4935 17.0292 28.4935 15.5182C28.4935 14.0072 27.4084 12.7822 26.0698 12.7822C24.7312 12.7822 23.646 14.0072 23.646 15.5182C23.646 17.0292 24.7312 18.2541 26.0698 18.2541Z" stroke="#222222" stroke-width="1.27298" stroke-linejoin="round"/>
<path d="M50.9999 0.75275C50.7979 6.45628 46.0803 10.5096 41.3193 12.7389C29.9363 17.8344 13.6047 17.2843 4.35691 8.16445C2.53909 6.18124 1.22622 3.57556 1.13965 0.75275C1.12523 0.347423 1.4282 0 1.83216 0C2.23612 0 2.58237 0.318471 2.58237 0.723798C2.55352 3.12681 3.57784 5.50087 5.19369 7.39722C13.9365 16.4737 29.9795 17.0382 40.9153 11.8848C45.2579 9.77128 49.6005 5.86277 49.5572 0.738274C49.5283 -0.231616 51.0288 -0.246091 50.9999 0.738274V0.75275Z" fill="#222222"/>
<path d="M7.92074 50.0006C8.62988 50.0006 9.20475 49.4237 9.20475 48.7122C9.20475 48.0007 8.62988 47.4238 7.92074 47.4238C7.21159 47.4238 6.63672 48.0007 6.63672 48.7122C6.63672 49.4237 7.21159 50.0006 7.92074 50.0006Z" fill="#222222"/>
<path d="M0.908911 39.3166C1.41089 39.3166 1.81782 38.9083 1.81782 38.4047C1.81782 37.901 1.41089 37.4927 0.908911 37.4927C0.406933 37.4927 0 37.901 0 38.4047C0 38.9083 0.406933 39.3166 0.908911 39.3166Z" fill="#222222"/>
<path d="M46.8884 41.9949C47.3904 41.9949 47.7973 41.5866 47.7973 41.0829C47.7973 40.5792 47.3904 40.1709 46.8884 40.1709C46.3864 40.1709 45.9795 40.5792 45.9795 41.0829C45.9795 41.5866 46.3864 41.9949 46.8884 41.9949Z" fill="#222222"/>
<path d="M26.0697 32.3394C26.7788 32.3394 27.3537 31.7626 27.3537 31.0511C27.3537 30.3395 26.7788 29.7627 26.0697 29.7627C25.3605 29.7627 24.7856 30.3395 24.7856 31.0511C24.7856 31.7626 25.3605 32.3394 26.0697 32.3394Z" fill="#222222"/>
</g>
<defs>
<clipPath id="clip0_565_29">
<rect width="51" height="50" fill="white"/>
</clipPath>
</defs>
</svg>
