<svg width="50" height="50" viewBox="0 0 50 50" fill="none" xmlns="http://www.w3.org/2000/svg">
<path d="M25.0002 14.5827H15.6252C14.2439 14.5827 12.9191 14.0339 11.9423 13.0572C10.9656 12.0804 10.4169 10.7557 10.4169 9.37434C10.4169 7.99302 10.9656 6.66824 11.9423 5.69149C12.9191 4.71474 14.2439 4.16602 15.6252 4.16602C22.9169 4.16602 25.0002 14.5827 25.0002 14.5827ZM25.0002 14.5827H34.3752C35.7565 14.5827 37.0812 14.0339 38.058 13.0572C39.0347 12.0804 39.5835 10.7557 39.5835 9.37434C39.5835 7.99302 39.0347 6.66824 38.058 5.69149C37.0812 4.71474 35.7565 4.16602 34.3752 4.16602C27.0835 4.16602 25.0002 14.5827 25.0002 14.5827ZM25.0002 14.5827V45.8326M4.16687 29.1661H45.8335M4.16687 21.2493V39.1661C4.16687 41.4996 4.16687 42.6663 4.621 43.5576C5.02047 44.3416 5.6579 44.9791 6.4419 45.3786C7.3332 45.8326 8.49997 45.8326 10.8335 45.8326H39.1667C41.5005 45.8326 42.6672 45.8326 43.5585 45.3786C44.3425 44.9791 44.98 44.3416 45.3795 43.5576C45.8335 42.6663 45.8335 41.4996 45.8335 39.1661V21.2493C45.8335 18.9158 45.8335 17.749 45.3795 16.8577C44.98 16.0737 44.3425 15.4363 43.5585 15.0368C42.6672 14.5827 41.5005 14.5827 39.1667 14.5827H10.8335C8.49997 14.5827 7.3332 14.5827 6.4419 15.0368C5.6579 15.4363 5.02047 16.0737 4.621 16.8577C4.16687 17.749 4.16687 18.9158 4.16687 21.2493Z" stroke="#222222" stroke-width="2.5" stroke-linecap="round" stroke-linejoin="round"/>
</svg>
