<svg width="1280" height="139" viewBox="0 0 1280 139" fill="none" xmlns="http://www.w3.org/2000/svg">
<path d="M222.748 58.7847C222.748 62.229 222.077 65.3157 220.727 68.0449C219.384 70.7814 217.582 73.0727 215.342 74.9481C213.094 76.8162 210.548 78.2245 207.709 79.1586C204.863 80.0926 201.922 80.4502 198.901 80.2167C195.865 79.9978 192.925 79.1367 190.093 77.6408V76.517C192.633 76.8964 194.895 77.0278 196.887 76.911C198.865 76.8016 200.966 76.3929 203.17 75.6778C205.381 74.97 207.439 73.7148 209.351 71.9197C211.263 70.1173 212.7 67.6143 213.671 64.3963C213.89 63.5717 214.079 62.5428 214.225 61.3095C214.371 60.0763 214.415 58.865 214.335 57.6609C214.262 52.4945 212.912 48.3496 210.292 45.2045C207.672 42.0594 203.973 40.4905 199.186 40.4905H186.27V107.494C186.35 109.442 187.08 111.106 188.466 112.492C189.853 113.879 191.516 114.565 193.457 114.565H194.917V115.689H170.34V114.565H171.792C173.74 114.565 175.397 113.872 176.79 112.492C178.177 111.106 178.907 109.442 178.972 107.494V45.314C178.972 43.3729 178.264 41.7091 176.842 40.3227C175.419 38.9362 173.74 38.2502 171.785 38.2502H170.442L170.332 37.1265H199.624C204.411 37.1265 208.519 37.9875 211.963 39.7024C215.407 41.4318 218.064 43.9129 219.932 47.1675C221.8 50.422 222.741 54.2969 222.741 58.7847H222.748Z" fill="#00292A"/>
<path d="M287.168 114.565C285.665 114.565 284.096 114.025 282.454 112.937C280.812 111.85 279.426 110.04 278.302 107.494H278.266L250.806 46.7734H249.799C249.719 47.5177 249.463 48.532 249.011 49.809C248.566 51.0787 248.055 52.3704 247.493 53.6766C246.939 54.9901 246.238 56.5371 245.421 58.3395L222.004 108.508C220.917 110.529 219.669 112.003 218.253 112.937C216.604 114.025 214.999 114.565 213.43 114.565H212.532V115.689H233.964V114.565H233.067C231.724 114.565 230.52 113.952 229.476 112.719C228.55 111.609 228.353 110.113 228.9 108.216V108.194L235.365 92.9065H263.715L269.969 108.143C270.552 110.077 270.37 111.602 269.429 112.719C268.378 113.952 267.218 114.565 265.948 114.565H265.05V115.689H288.059V114.565H287.161H287.168ZM236.788 89.5425L249.748 58.8649L262.35 89.5425H236.788Z" fill="#00292A"/>
<path d="M357.317 55.5302V108.508C357.39 110.157 358.047 111.58 359.28 112.777C360.513 113.974 362.031 114.572 363.826 114.572H365.169V115.696H342.27V114.572H343.62C345.415 114.572 346.926 113.974 348.166 112.777C349.399 111.58 350.056 110.157 350.129 108.508V84.15H308.717V108.508C308.717 110.157 309.345 111.58 310.622 112.777C311.892 113.974 313.431 114.572 315.226 114.572H316.569V115.696H293.67V114.572H295.013C296.815 114.572 298.333 113.974 299.566 112.777C300.8 111.58 301.456 110.157 301.529 108.508V55.5302C301.449 53.808 300.8 52.3705 299.566 51.2102C298.333 50.0572 296.815 49.4734 295.013 49.4734H293.67V48.3497H316.569V49.4734H315.226C313.424 49.4734 311.892 50.0572 310.622 51.2102C309.352 52.3705 308.717 53.8153 308.717 55.5302V80.7859H350.129V55.5302C350.049 53.808 349.399 52.3705 348.166 51.2102C346.933 50.0572 345.415 49.4734 343.62 49.4734H342.27V48.3497H365.169V49.4734H363.826C362.031 49.4734 360.52 50.0572 359.28 51.2102C358.047 52.3705 357.383 53.8153 357.317 55.5302Z" fill="#00292A"/>
<path d="M445.314 114.565C443.818 114.565 442.249 114.025 440.6 112.937C438.958 111.85 437.572 110.04 436.448 107.494H436.412L408.952 46.7734H407.945C407.865 47.5177 407.609 48.532 407.157 49.809C406.705 51.086 406.208 52.3704 405.639 53.6766C405.085 54.9901 404.391 56.5371 403.567 58.3395L380.208 108.413H380.201C379.106 110.486 377.844 111.989 376.406 112.937C374.765 114.025 373.152 114.565 371.583 114.565H370.685V115.689H392.117V114.565H391.22C389.877 114.565 388.673 113.952 387.63 112.719C386.703 111.609 386.506 110.113 387.053 108.216V108.194L393.519 92.9065H421.876L428.158 108.209C428.698 110.121 428.509 111.609 427.582 112.719C426.531 113.952 425.371 114.565 424.101 114.565H423.204V115.689H446.212V114.565H445.314ZM394.934 89.5425L407.901 58.8576L420.496 89.5425H394.934Z" fill="#00292A"/>
<path d="M520.965 64.0022C518.039 58.9452 513.894 55.0776 508.508 52.385C503.116 49.6923 496.716 48.3423 489.317 48.3423H451.823V49.4661H453.173C454.969 49.4661 456.479 50.0498 457.72 51.2028C458.953 52.3631 459.61 53.8444 459.683 55.6322V108.391C459.602 110.033 458.967 111.471 457.771 112.711C456.574 113.945 455.078 114.557 453.283 114.557H451.823V115.681H489.317C496.723 115.681 503.116 114.317 508.508 111.587C513.894 108.851 518.046 104.983 520.965 99.9703C523.884 94.9571 525.343 88.966 525.343 82.0118C525.343 75.0575 523.884 69.0519 520.965 63.9949V64.0022ZM509.793 104.181C504.816 109.61 497.986 112.325 489.309 112.325H466.972V51.7063H489.309C497.986 51.7063 504.816 54.4282 509.793 59.85C514.769 65.2719 517.258 72.664 517.258 82.0118C517.258 91.3595 514.769 98.7516 509.793 104.173V104.181Z" fill="#00292A"/>
<path d="M554.518 114.565L554.627 115.689H529.152V114.565H530.721C532.816 114.565 534.589 113.966 536.048 112.77C537.508 111.573 538.274 110.15 538.354 108.501V55.5228C538.274 53.8006 537.515 52.3631 536.048 51.2028C534.589 50.0498 532.808 49.4661 530.721 49.4661H529.152V48.3423H554.627L554.518 49.4661H553.058C550.964 49.4661 549.191 50.0498 547.731 51.2028C546.272 52.3631 545.505 53.8079 545.425 55.5228V108.501C545.505 110.15 546.264 111.573 547.731 112.77C549.191 113.966 550.971 114.565 553.058 114.565H554.518Z" fill="#00292A"/>
<path d="M669.223 82.9167L667.873 100.54C665.925 103.758 663.473 106.618 660.525 109.128C657.569 111.639 654.089 113.616 650.09 115.076C646.083 116.535 641.501 117.265 636.342 117.265C628.555 117.192 621.638 115.47 615.581 112.106C609.517 108.742 604.788 104.006 601.381 97.9053C597.973 91.8048 596.272 84.6024 596.272 76.2981C596.272 67.9939 597.958 61.0177 601.322 54.9172C604.686 48.8167 609.422 44.0662 615.523 40.6657C621.623 37.2652 628.782 35.5576 637.013 35.5576C642.552 35.5576 647.543 36.2873 651.994 37.7468C656.446 39.2062 660.32 41.0233 663.611 43.1905L665.859 59.0183H664.852C663.203 52.4361 659.839 47.4375 654.753 44.037C649.666 40.6365 643.756 38.9289 637.02 38.9289C630.285 38.9289 624.732 40.4833 619.901 43.5846C615.077 46.6932 611.334 51.0278 608.678 56.6029C606.022 62.178 604.693 68.709 604.693 76.1887C604.693 83.6683 606.022 90.2213 608.678 95.8328C611.334 101.444 615.034 105.823 619.791 108.968C624.542 112.113 630.059 113.755 636.349 113.908C641.661 113.908 646.58 112.916 651.111 110.931C655.636 108.953 659.437 105.691 662.502 101.167C665.567 96.6428 667.515 90.5569 668.34 82.9313H669.238L669.223 82.9167Z" fill="#00292A"/>
<path d="M712.773 46.7734C718.012 46.7734 722.931 47.6126 727.535 49.2982C732.14 50.9839 736.175 53.392 739.656 56.5371C743.137 59.6822 745.844 63.4038 747.792 67.7019C749.741 72.0072 750.711 76.7723 750.711 82.0118C750.711 87.2512 749.741 92.0236 747.792 96.3217C745.844 100.627 743.137 104.349 739.656 107.486C736.175 110.632 732.132 113.04 727.535 114.725C722.931 116.411 718.012 117.25 712.773 117.25C707.533 117.25 702.63 116.411 698.069 114.725C693.501 113.04 689.48 110.632 686.007 107.486C682.526 104.341 679.811 100.62 677.87 96.3217C675.922 92.0163 674.951 87.2512 674.951 82.0118C674.951 76.7723 675.922 72.0072 677.87 67.7019C679.811 63.3965 682.526 59.6749 686.007 56.5371C689.487 53.392 693.508 50.9839 698.069 49.2982C702.63 47.6126 707.533 46.7734 712.773 46.7734ZM712.773 113.893C718.311 113.893 723.325 112.551 727.812 109.851C732.3 107.158 735.854 103.415 738.474 98.6276C741.093 93.8406 742.4 88.302 742.4 82.0191C742.4 75.7361 741.086 70.1027 738.474 65.3522C735.854 60.6017 732.3 56.8801 727.812 54.1874C723.325 51.4947 718.311 50.1447 712.773 50.1447C707.234 50.1447 702.338 51.4947 697.843 54.1874C693.355 56.8801 689.801 60.6017 687.181 65.3522C684.562 70.1027 683.255 75.6632 683.255 82.0191C683.255 88.375 684.562 93.8406 687.181 98.6276C689.801 103.415 693.355 107.158 697.843 109.851C702.33 112.543 707.307 113.893 712.773 113.893Z" fill="#00292A"/>
<path d="M804.579 99.6419L798.406 115.689H752.835V114.565H754.404C756.272 114.565 757.804 113.966 759.001 112.77C760.198 111.573 760.832 110.15 760.913 108.501V55.5228C760.832 53.8006 760.168 52.3631 758.891 51.2028C757.622 50.0498 756.045 49.4661 754.177 49.4661H752.835V48.3423H776.069V49.4661H774.719C772.924 49.4661 771.37 50.0498 770.063 51.2028C768.75 52.3631 768.1 53.8079 768.1 55.5228V112.2H785.154C788.898 112.2 791.904 111.66 794.195 110.573C796.472 109.486 798.333 107.997 799.756 106.085C801.179 104.173 802.412 102.028 803.456 99.6346H804.579V99.6419Z" fill="#00292A"/>
<path d="M858.112 99.6419L851.939 115.689H806.367V114.565H807.936C809.804 114.565 811.337 113.966 812.541 112.77C813.738 111.573 814.372 110.15 814.453 108.501V55.5228C814.372 53.8006 813.701 52.3631 812.431 51.2028C811.147 50.0498 809.585 49.4661 807.717 49.4661H806.367V48.3423H829.602V49.4661H828.259C826.457 49.4661 824.91 50.0498 823.596 51.2028C822.29 52.3631 821.633 53.8079 821.633 55.5228V112.2H838.694C842.438 112.2 845.444 111.66 847.735 110.573C850.012 109.486 851.858 107.997 853.281 106.085C854.704 104.173 855.938 102.028 856.988 99.6346H858.105L858.112 99.6419Z" fill="#00292A"/>
<path d="M910.864 99.6421L904.683 115.689H859.119V114.565H860.688C862.556 114.565 864.089 113.967 865.285 112.77C866.482 111.573 867.117 110.15 867.197 108.501V55.4135C867.117 53.6913 866.482 52.2684 865.285 51.1446C864.089 50.0208 862.556 49.4662 860.688 49.4662H859.119V48.3425H891.665C893.985 48.3425 896.452 48.1381 899.072 47.7222C901.699 47.3135 903.486 46.9195 904.464 46.54V59.2226H903.231V57.5443C903.231 55.9754 902.727 54.6254 901.713 53.5016C900.706 52.3778 899.342 51.8232 897.619 51.8232H874.385V80.3336H893.46C895.029 80.3336 896.196 79.8592 896.941 78.9252C897.685 77.9912 898.065 76.8893 898.065 75.6196V74.1601H899.298V89.8784H898.065V88.4189C898.065 87.1492 897.685 86.0473 896.941 85.1133C896.196 84.1792 895.029 83.7049 893.46 83.7049H874.385V112.215H891.439C895.182 112.215 898.189 111.675 900.48 110.588C902.757 109.501 904.617 108.012 906.04 106.1C907.463 104.188 908.697 102.043 909.74 99.6494H910.864V99.6421Z" fill="#00292A"/>
<path d="M984.267 87.4043L983.034 102.78C981.085 105.772 978.546 108.355 975.401 110.522C972.256 112.689 968.702 114.36 964.739 115.513C960.77 116.674 956.581 117.25 952.166 117.25C944.606 117.177 938.039 115.718 932.471 112.872C926.896 110.026 922.612 105.99 919.621 100.751C916.629 95.5116 915.133 89.2651 915.133 82.0044C915.133 74.7436 916.629 68.3877 919.621 63.1483C922.612 57.9089 926.896 53.8735 932.471 51.0276C938.046 48.1817 944.614 46.766 952.166 46.766C956.807 46.766 961.485 47.3644 966.199 48.5611C970.913 49.7579 974.992 51.4435 978.429 53.6108L980.895 69.4385H979.888C978.239 62.5572 974.934 57.617 969.957 54.6251C964.98 51.6333 959.011 50.1373 952.057 50.1373C946.146 50.1373 941.038 51.4289 936.733 54.0122C932.427 56.5954 929.1 60.2586 926.743 65.0091C924.386 69.7596 923.211 75.4296 923.211 82.0117C923.211 88.5938 924.386 94.0375 926.743 98.788C929.1 103.539 932.449 107.209 936.791 109.785C941.133 112.368 946.255 113.696 952.166 113.769C957.778 113.769 962.849 112.857 967.374 111.018C971.898 109.187 975.583 106.326 978.429 102.429C981.275 98.5399 982.88 93.5267 983.253 87.3897H984.26L984.267 87.4043Z" fill="#00292A"/>
<path d="M1049.58 46.4376V59.1202H1048.35V57.3178C1048.35 55.7489 1047.85 54.4281 1046.83 53.3335C1045.83 52.2535 1044.46 51.677 1042.74 51.5968H1022.43V108.501C1022.5 110.15 1023.18 111.573 1024.45 112.77C1025.71 113.966 1027.26 114.565 1029.05 114.565H1030.28V115.688H1007.16V114.565H1008.51C1010.3 114.565 1011.84 113.966 1013.11 112.77C1014.38 111.573 1015.05 110.15 1015.13 108.501V51.5968H994.818C993.096 51.677 991.732 52.2535 990.717 53.3335C989.71 54.4281 989.207 55.7489 989.207 57.3178V59.1202H987.974V46.4376C988.645 46.6638 989.674 46.9265 991.053 47.2257C992.44 47.5249 993.994 47.7657 995.716 47.9554C997.438 48.1452 999.044 48.24 1000.54 48.24H1037.02C1038.51 48.24 1040.11 48.1452 1041.79 47.9554C1043.47 47.7657 1045.03 47.5249 1046.45 47.2257C1047.87 46.9265 1048.92 46.6711 1049.59 46.4376H1049.58Z" fill="#00292A"/>
<path d="M1079.55 114.565L1079.66 115.689H1054.18V114.565H1055.75C1057.85 114.565 1059.63 113.966 1061.08 112.77C1062.54 111.573 1063.31 110.15 1063.38 108.501V55.5228C1063.31 53.8006 1062.54 52.3631 1061.08 51.2028C1059.63 50.0498 1057.84 49.4661 1055.75 49.4661H1054.18V48.3423H1079.66L1079.55 49.4661H1078.09C1075.99 49.4661 1074.22 50.0498 1072.77 51.2028C1071.31 52.3631 1070.53 53.8079 1070.46 55.5228V108.501C1070.53 110.15 1071.3 111.573 1072.77 112.77C1074.22 113.966 1076 114.565 1078.09 114.565H1079.55Z" fill="#00292A"/>
<path d="M1121.19 46.7734C1126.43 46.7734 1131.35 47.6126 1135.95 49.2982C1140.56 50.9839 1144.59 53.392 1148.08 56.5371C1151.56 59.6822 1154.26 63.4038 1156.21 67.7019C1158.16 72.0072 1159.13 76.7723 1159.13 82.0118C1159.13 87.2512 1158.16 92.0236 1156.21 96.3217C1154.26 100.627 1151.56 104.349 1148.08 107.486C1144.59 110.632 1140.55 113.04 1135.95 114.725C1131.35 116.411 1126.43 117.25 1121.19 117.25C1115.95 117.25 1111.05 116.411 1106.49 114.725C1101.92 113.04 1097.9 110.632 1094.43 107.486C1090.95 104.341 1088.23 100.62 1086.29 96.3217C1084.34 92.0163 1083.37 87.2512 1083.37 82.0118C1083.37 76.7723 1084.34 72.0072 1086.29 67.7019C1088.24 63.3965 1090.95 59.6749 1094.43 56.5371C1097.91 53.392 1101.93 50.9839 1106.49 49.2982C1111.05 47.6126 1115.95 46.7734 1121.19 46.7734ZM1121.19 113.893C1126.73 113.893 1131.74 112.551 1136.23 109.851C1140.72 107.158 1144.27 103.415 1146.89 98.6276C1149.51 93.8406 1150.82 88.302 1150.82 82.0191C1150.82 75.7361 1149.51 70.1027 1146.89 65.3522C1144.27 60.6017 1140.72 56.8801 1136.23 54.1874C1131.74 51.4947 1126.73 50.1447 1121.19 50.1447C1115.65 50.1447 1110.76 51.4947 1106.26 54.1874C1101.77 56.8801 1098.22 60.6017 1095.6 65.3522C1092.98 70.1027 1091.67 75.6632 1091.67 82.0191C1091.67 88.375 1092.98 93.8406 1095.6 98.6276C1098.22 103.415 1101.77 107.158 1106.26 109.851C1110.75 112.543 1115.73 113.893 1121.19 113.893Z" fill="#00292A"/>
<path d="M1239.71 48.3496V49.4734H1237.8C1236.15 49.4734 1234.72 50.028 1233.48 51.1518C1232.25 52.2755 1231.63 53.662 1231.63 55.3039V102.897C1231.63 105.297 1231.71 107.596 1231.86 109.8C1232 112.011 1232.26 114.499 1232.64 117.265H1231.63L1173.17 61.8641L1173.26 108.742H1173.27C1173.27 110.383 1173.89 111.77 1175.12 112.894C1176.35 114.018 1177.8 114.579 1179.44 114.579H1181.35V115.703H1160.14V114.579H1162.05C1163.77 114.579 1165.22 114.025 1166.43 112.894C1167.62 111.77 1168.22 110.383 1168.22 108.742V60.7039C1168.22 56.8874 1167.89 52.2099 1167.22 46.6713H1168.33L1226.7 101.663V55.3039C1226.62 53.662 1225.99 52.2755 1224.79 51.1518C1223.59 50.028 1222.14 49.4734 1220.41 49.4734H1218.51V48.3496H1239.71H1239.71Z" fill="#00292A"/>
<path d="M1279.99 99.1894C1280.07 102.48 1279.21 105.509 1277.42 108.274C1275.62 111.047 1273.21 113.237 1270.18 114.842C1267.14 116.447 1263.79 117.257 1260.13 117.257C1257.96 117.257 1255.62 117.068 1253.11 116.688C1250.6 116.316 1248.27 115.74 1246.1 114.951C1243.93 114.163 1242.13 113.178 1240.71 111.981C1240.49 110.931 1240.37 109.61 1240.37 107.997C1240.37 106.384 1240.5 104.692 1240.76 102.889C1241.03 101.094 1241.38 99.4886 1241.83 98.0656H1243.18C1242.87 101.43 1243.36 104.312 1244.63 106.713C1245.9 109.099 1247.78 110.916 1250.24 112.149C1252.71 113.383 1255.6 113.966 1258.89 113.886C1263.52 113.74 1267.17 112.565 1269.83 110.354C1272.49 108.143 1273.81 105.202 1273.81 101.546C1273.81 99.744 1273.49 98.1167 1272.87 96.6645C1272.23 95.2051 1271.2 93.8332 1269.78 92.5635L1247.33 75.2763C1245.23 73.4812 1243.81 71.5036 1243.06 69.3291C1242.32 67.1618 1241.94 65.1113 1241.94 63.1556C1241.94 60.0908 1242.76 57.3178 1244.41 54.8513C1246.06 52.3849 1248.28 50.4219 1251.08 48.9625C1253.89 47.503 1257.02 46.766 1260.46 46.766C1262.55 46.766 1264.38 46.8463 1265.95 46.9922C1267.52 47.1381 1268.9 47.306 1270.06 47.4957C1270.59 47.5833 1271.09 47.6781 1271.57 47.7803H1275.27L1275.34 48.8822C1275.34 48.8822 1275.37 48.8895 1275.38 48.8968L1275.49 60.0105H1274.15C1274.15 56.9456 1273.1 54.5303 1271 52.7716C1268.9 51.013 1265.66 50.13 1261.24 50.13C1257.49 50.13 1254.29 51.1589 1251.64 53.2168C1248.99 55.2746 1247.69 57.7994 1247.77 60.7913C1247.77 61.7691 1247.9 62.7543 1248.16 63.7613C1248.43 64.7756 1248.87 65.768 1249.51 66.7385C1250.14 67.7091 1251.02 68.6869 1252.15 69.6574L1274.81 87.1708C1276.54 88.5938 1277.81 90.4108 1278.63 92.6073C1279.45 94.8183 1279.91 97.0075 1279.97 99.1748L1279.99 99.1894Z" fill="#00292A"/>
<path d="M43.5062 22.2493H0L0.167837 23.913H2.16728C5.05699 23.913 7.55994 24.9565 9.66885 26.9998C11.7778 29.0722 12.8359 31.5387 12.8359 34.4211V126.768C12.7264 129.672 11.6391 132.146 9.58858 134.189C7.53076 136.261 5.05699 137.276 2.16728 137.276H0V138.939H36.5081V137.276H34.3408C31.4511 137.276 28.9774 136.261 26.9195 134.189C24.8617 132.146 23.7817 129.672 23.6723 126.768V27.2479H42.8421C47.6729 27.2479 51.7593 28.3279 55.1088 30.4733C57.1666 28.846 59.3485 27.35 61.6544 26.0001C56.5828 23.5117 50.5407 22.2493 43.5135 22.2493H43.5062Z" fill="#00292A"/>
<path d="M77.8471 54.4229C77.8471 59.5456 76.8473 64.1356 74.8479 68.1782C72.8484 72.2501 70.1777 75.6652 66.8501 78.4309C63.7123 81.0725 60.1658 83.0719 56.2253 84.4292C55.9918 84.5241 55.751 84.597 55.5175 84.6773C53.9486 85.1881 52.3651 85.5968 50.7524 85.8741C48.0305 86.3484 45.2503 86.4724 42.4335 86.2608C41.0179 86.1513 39.6168 85.9543 38.2376 85.6624C36.3185 85.2757 34.4285 84.6919 32.5677 83.9403C31.4877 83.4952 30.415 82.9989 29.3423 82.4298V80.766C30.4223 80.9338 31.4804 81.0579 32.5093 81.1527C34.4941 81.3644 36.3403 81.43 38.0625 81.3862C38.5222 81.3862 38.9819 81.3717 39.4271 81.3425C42.3752 81.1746 45.4838 80.5763 48.7602 79.5109C49.3732 79.3138 49.9716 79.0949 50.5627 78.8322C52.5475 78.0003 54.4521 76.8474 56.2691 75.3587C56.8237 74.9136 57.3783 74.4393 57.9256 73.9285C60.7569 71.265 62.895 67.5507 64.3399 62.7637C64.6755 61.5523 64.9528 60.0126 65.1717 58.181C65.3907 56.3494 65.449 54.5543 65.3396 52.7665C65.325 51.3508 65.2301 49.9862 65.0915 48.68C67.7696 44.9438 70.9658 41.8352 74.7603 39.2885C76.8181 43.6522 77.8471 48.7092 77.8471 54.4302V54.4229Z" fill="#00292A"/>
<path d="M146.397 89.8947L144.398 115.048C141.508 119.646 137.867 123.732 133.481 127.315C129.088 130.898 123.922 133.722 117.982 135.802C112.034 137.889 105.233 138.925 97.5641 138.925C86.0052 138.83 75.7307 136.371 66.7259 131.562C57.7211 126.753 50.6939 119.989 45.6369 111.283C42.2072 105.379 39.945 98.7535 38.8431 91.4198C39.9012 91.6022 40.952 91.7117 42.0101 91.792C43.0391 91.8649 44.0534 91.9014 45.0531 91.9014C47.1766 91.9014 49.2782 91.7336 51.3433 91.3906C52.2482 97.586 53.9557 103.227 56.466 108.32C60.4138 116.333 65.9086 122.586 72.965 127.074C80.0215 131.562 88.2163 133.912 97.5495 134.116C105.438 134.116 112.75 132.7 119.47 129.876C126.191 127.045 131.832 122.389 136.393 115.931C140.946 109.459 143.836 100.775 145.062 89.8874H146.397V89.8947Z" fill="#00292A"/>
<path d="M141.391 55.7509H139.888C137.444 46.3448 132.445 39.2226 124.885 34.3627C117.325 29.5027 108.546 27.0727 98.5492 27.0727C90.3836 27.0727 83.1156 28.6125 76.767 31.7138C75.5191 32.3122 74.3078 32.9762 73.1256 33.7132C72.7097 33.9759 72.3083 34.224 71.8997 34.5086C68.7911 36.581 65.9962 38.9964 63.5225 41.7621C61.9828 43.4842 60.5671 45.3596 59.2682 47.3591C58.2539 48.928 57.3125 50.5845 56.4514 52.3212C53.5034 58.2539 51.6717 64.9308 50.9201 72.3813C49.6577 73.1986 48.3515 73.8116 47.0161 74.2421C44.265 75.1324 41.6016 75.6578 39.084 75.811C38.7775 75.8256 38.471 75.8402 38.1646 75.8402C38.7483 66.1057 41.1929 57.4658 45.5275 49.9204C48.1545 45.3523 51.3215 41.3243 55.0723 37.8362C56.4077 36.5592 57.8087 35.3624 59.2974 34.2386C61.5595 32.5311 64.0041 30.9622 66.6165 29.5538C66.7406 29.4808 66.85 29.4297 66.9741 29.3714C68.7546 28.43 70.6008 27.5762 72.5054 26.8319C80.1894 23.789 88.8658 22.2639 98.5346 22.2639C106.759 22.2639 114.173 23.3074 120.791 25.3871C127.41 27.4668 133.153 30.0719 138.042 33.1659L141.377 55.7655L141.391 55.7509Z" fill="#00292A"/>
<path d="M69.4845 9.96803H63.9094L66.6969 17.9877L69.4845 9.96803ZM62.3405 8.35534L63.0337 4.06456L58.2613 2.47377L54.693 5.92536L62.3332 8.35534H62.3405ZM65.938 20.1623L62.3478 9.86587L54.4886 7.36292L65.8796 20.3155L65.938 20.155V20.1623ZM68.9518 4.247H64.4494L63.7489 8.58886H69.645L68.9445 4.247H68.9518ZM71.0534 9.87317L67.4559 20.1696L67.5142 20.3301L78.9125 7.37022L71.0534 9.87317ZM63.9605 2.86782H69.448L73.8555 1.40107L69.791 0.0364862L63.8437 0L59.5529 1.39377L63.9605 2.86052V2.86782ZM71.068 8.36264L78.7082 5.93266L75.1398 2.48106L70.3674 4.07186L71.0607 8.36264H71.068ZM58.1227 22.2566C58.1227 20.3666 56.5903 18.8342 54.7003 18.8342C56.5903 18.8342 58.1227 17.3018 58.1227 15.4118C58.1227 17.3018 59.6551 18.8342 61.5451 18.8342C59.6551 18.8342 58.1227 20.3666 58.1227 22.2566ZM75.4974 22.2566C75.4974 20.3666 73.965 18.8342 72.075 18.8342C73.965 18.8342 75.4974 17.3018 75.4974 15.4118C75.4974 17.3018 77.0298 18.8342 78.9198 18.8342C77.0298 18.8342 75.4974 20.3666 75.4974 22.2566Z" fill="#00292A"/>
</svg>
